<?xml version="1.0" standalone="no"?>
<!DOCTYPE svg PUBLIC "-//W3C//DTD SVG 20010904//EN"
 "http://www.w3.org/TR/2001/REC-SVG-20010904/DTD/svg10.dtd">
<svg version="1.0" xmlns="http://www.w3.org/2000/svg"
 width="1000.000000pt" height="1000.000000pt" viewBox="0 0 1000.000000 1000.000000"
 preserveAspectRatio="xMidYMid meet">
<metadata>
Created by potrace 1.11, written by Peter Selinger 2001-2013
</metadata>
<g transform="translate(0.000000,1000.000000) scale(0.100000,-0.100000)"
fill="#000000" stroke="none">
<path d="M740 4995 l0 -3865 638 2 637 3 5 1463 5 1463 433 -1 432 0 0 510 0
510 -440 0 -440 -1 0 1381 0 1381 440 -1 440 0 0 510 0 510 -1075 0 -1075 0 0
-3865z"/>
<path d="M3590 8350 l0 -510 1564 0 c860 0 1570 -2 1577 -4 8 -3 39 -7 69 -10
30 -3 82 -10 115 -16 33 -6 70 -12 82 -14 13 -1 26 -6 30 -9 3 -4 19 -7 34 -7
15 0 30 -4 33 -9 3 -4 24 -11 46 -15 23 -3 49 -10 58 -15 9 -5 58 -28 107 -52
50 -23 98 -49 108 -57 18 -16 49 -35 82 -51 23 -10 215 -206 215 -219 0 -5 10
-17 21 -28 12 -10 25 -28 30 -39 10 -23 31 -58 40 -65 3 -3 9 -12 12 -20 4 -8
18 -33 32 -55 13 -22 24 -50 25 -62 0 -13 3 -23 8 -23 9 0 28 -45 37 -90 4
-19 11 -41 16 -50 25 -49 45 -155 61 -325 13 -148 13 -152 0 -300 -12 -137
-33 -270 -44 -281 -5 -4 -8 -18 -8 -30 0 -13 -4 -25 -9 -28 -4 -3 -11 -20 -15
-38 -7 -37 -101 -233 -124 -261 -17 -19 -36 -51 -51 -84 -13 -29 -227 -243
-243 -243 -7 0 -24 -10 -38 -22 -30 -27 -249 -137 -285 -144 -42 -7 -76 -18
-81 -25 -3 -5 -18 -9 -34 -9 -16 0 -32 -5 -35 -10 -3 -6 -17 -7 -30 -4 -12 3
-26 1 -29 -5 -4 -6 -18 -11 -32 -11 -13 0 -24 -4 -24 -10 0 -5 -16 -10 -35
-10 -19 0 -35 -3 -35 -7 0 -5 -731 -7 -1625 -5 l-1625 2 0 -1975 0 -1975 635
0 635 0 2 1468 3 1467 1025 6 c706 4 1037 10 1065 17 22 6 66 12 97 12 31 0
59 4 63 10 3 5 11 7 18 4 14 -5 198 27 292 51 11 3 37 8 58 11 20 3 40 10 43
15 3 5 16 9 29 9 23 0 98 21 140 40 17 7 53 20 75 25 44 12 60 19 60 26 0 5 9
9 20 9 19 0 90 29 100 41 3 3 14 9 25 14 11 4 22 9 25 10 3 2 15 6 28 10 12 4
22 11 22 15 0 5 14 11 30 15 17 4 30 10 30 13 0 4 17 15 38 25 37 17 72 37 82
47 8 8 44 29 65 39 11 5 29 18 39 30 11 11 24 21 30 21 6 0 20 11 30 25 10 14
24 25 31 25 6 0 34 22 61 50 27 27 54 50 59 50 14 0 155 142 155 156 0 5 23
32 50 59 28 27 50 53 50 58 0 6 10 20 23 31 26 26 45 54 53 78 4 10 9 18 13
18 4 0 15 15 26 33 10 17 21 34 25 37 3 3 15 22 26 43 36 73 39 77 46 77 5 0
8 6 8 13 0 6 11 33 24 60 14 26 27 61 31 77 4 17 10 30 14 30 5 0 16 26 25 58
17 56 30 90 46 123 5 9 12 38 15 65 4 27 11 54 15 59 4 6 10 24 13 40 3 17 10
50 16 75 6 25 10 64 11 87 0 23 4 44 8 47 34 21 34 791 0 812 -4 3 -8 24 -8
47 -1 23 -5 62 -11 87 -6 25 -13 59 -16 75 -3 17 -9 35 -13 40 -4 6 -11 28
-14 50 -8 45 -26 105 -37 120 -4 6 -10 27 -14 48 -4 20 -11 37 -16 37 -5 0 -9
11 -9 25 0 14 -4 25 -10 25 -5 0 -12 16 -16 35 -3 19 -10 35 -15 35 -5 0 -9 6
-9 14 0 19 -51 116 -60 116 -4 0 -11 11 -14 25 -7 28 -74 138 -88 143 -4 2 -8
9 -8 15 0 7 -11 24 -25 39 -14 15 -25 31 -25 36 0 5 -11 18 -25 28 -14 10 -25
23 -25 29 0 5 -23 34 -51 63 -28 28 -47 52 -43 52 5 0 -18 27 -51 60 -33 33
-64 60 -70 60 -5 0 -37 27 -69 60 -33 33 -63 60 -67 60 -5 0 -19 11 -33 25
-14 14 -29 25 -34 25 -5 0 -17 10 -28 21 -10 12 -28 25 -39 30 -21 10 -57 31
-65 39 -7 7 -43 29 -60 37 -8 4 -17 9 -20 13 -3 3 -22 15 -44 26 -21 10 -57
29 -80 41 -22 12 -49 22 -58 22 -10 1 -18 6 -18 11 0 6 -9 10 -20 10 -11 0
-20 4 -20 10 0 5 -17 12 -37 16 -21 4 -40 10 -43 13 -12 14 -52 31 -90 37 -22
4 -40 10 -40 15 0 5 -11 9 -24 9 -14 0 -28 5 -31 11 -4 6 -13 8 -21 5 -7 -3
-16 -1 -19 4 -4 6 -17 10 -30 10 -13 0 -26 4 -29 9 -5 8 -40 16 -103 25 -13 1
-26 6 -30 9 -3 4 -21 7 -40 7 -18 0 -41 4 -51 9 -43 23 -219 44 -532 65 -172
12 -513 15 -1707 15 l-1493 1 0 -510z"/>
</g>
</svg>
