<?xml version="1.0" standalone="no"?>
<!DOCTYPE svg PUBLIC "-//W3C//DTD SVG 20010904//EN"
 "http://www.w3.org/TR/2001/REC-SVG-20010904/DTD/svg10.dtd">
<svg version="1.0" xmlns="http://www.w3.org/2000/svg"
 width="500.000000pt" height="500.000000pt" viewBox="0 0 500.000000 500.000000"
 preserveAspectRatio="xMidYMid meet">
<metadata>
Created by potrace 1.11, written by Peter Selinger 2001-2013
</metadata>
<g transform="translate(0.000000,500.000000) scale(0.100000,-0.100000)"
fill="#000000" stroke="none">
<path d="M2717 4320 c-529 -60 -955 -462 -1052 -992 -11 -60 -15 -130 -13
-223 2 -74 3 -135 2 -135 0 0 -45 7 -100 15 -721 109 -1368 -475 -1331 -1200
9 -182 44 -310 128 -475 137 -268 391 -484 679 -579 157 -51 182 -53 733 -58
284 -3 517 -1 517 4 0 4 -91 99 -203 211 l-202 202 -287 0 c-215 0 -304 4
-357 15 -282 59 -504 275 -576 560 -25 98 -23 256 4 358 70 266 288 478 558
542 109 26 291 17 398 -19 178 -61 342 -197 422 -351 83 -162 86 -180 91 -530
l3 -310 202 -202 c111 -112 206 -203 210 -203 5 0 7 227 5 505 -3 445 -1 504
12 500 84 -25 142 -28 625 -35 584 -7 570 -6 730 -85 165 -81 280 -196 361
-360 76 -155 86 -209 91 -527 l5 -278 204 0 204 0 0 263 c0 303 -12 405 -65
564 -135 404 -440 689 -860 805 -76 20 -107 22 -595 28 -588 8 -592 8 -770 97
-80 40 -110 62 -190 143 -105 105 -150 173 -191 289 -181 513 198 1051 741
1051 219 0 424 -90 576 -252 115 -124 184 -272 206 -444 l12 -94 203 0 203 0
0 64 c0 190 -79 427 -208 620 -58 87 -204 236 -293 299 -236 167 -550 249
-832 217z"/>
</g>
</svg>
