<?xml version="1.0" encoding="UTF-8"?>
<svg width="1161px" height="1028px" viewBox="0 0 1161 1028" version="1.1" xmlns="http://www.w3.org/2000/svg" xmlns:xlink="http://www.w3.org/1999/xlink">
    <!-- Generator: Sketch 52.6 (67491) - http://www.bohemiancoding.com/sketch -->
    <title>Illustration</title>
    <desc>Created with Sketch.</desc>
    <defs>
        <linearGradient x1="140.139819%" y1="-38.0974693%" x2="0.499999523%" y2="101.499999%" id="linearGradient-1">
            <stop stop-color="#FF2B00" stop-opacity="0.374971694" offset="0%"></stop>
            <stop stop-color="#FA4A26" offset="100%"></stop>
        </linearGradient>
        <linearGradient x1="327.1508%" y1="-206.858835%" x2="0.499999523%" y2="101.499999%" id="linearGradient-2">
            <stop stop-color="#FF2B00" stop-opacity="0.374971694" offset="0%"></stop>
            <stop stop-color="#FA4A26" offset="100%"></stop>
        </linearGradient>
        <linearGradient x1="212.012219%" y1="-94.40353%" x2="0.499999523%" y2="101.499999%" id="linearGradient-3">
            <stop stop-color="#FF2B00" stop-opacity="0.374971694" offset="0%"></stop>
            <stop stop-color="#FA4A26" offset="100%"></stop>
        </linearGradient>
        <linearGradient x1="309.636002%" y1="-216.392693%" x2="0.499999523%" y2="101.499999%" id="linearGradient-4">
            <stop stop-color="#FF2B00" stop-opacity="0.374971694" offset="0%"></stop>
            <stop stop-color="#FA4A26" offset="100%"></stop>
        </linearGradient>
        <linearGradient x1="-128.811213%" y1="50%" x2="238.256522%" y2="0%" id="linearGradient-5">
            <stop stop-color="#4ABCAD" offset="0%"></stop>
            <stop stop-color="#D9FFFA" offset="100%"></stop>
        </linearGradient>
        <linearGradient x1="190.750811%" y1="-4.06211649%" x2="-41.7875807%" y2="107.475237%" id="linearGradient-6">
            <stop stop-color="#4ABCAD" offset="0%"></stop>
            <stop stop-color="#D9FFFA" offset="100%"></stop>
        </linearGradient>
        <linearGradient x1="159.691287%" y1="-281.696519%" x2="-22.8202167%" y2="129.31159%" id="linearGradient-7">
            <stop stop-color="#4ABCAD" offset="0%"></stop>
            <stop stop-color="#D9FFFA" offset="100%"></stop>
        </linearGradient>
        <linearGradient x1="181.350649%" y1="-223.295831%" x2="-148.183293%" y2="256.323486%" id="linearGradient-8">
            <stop stop-color="#4ABCAD" offset="0%"></stop>
            <stop stop-color="#D9FFFA" offset="100%"></stop>
        </linearGradient>
        <linearGradient x1="138.491811%" y1="-249.86137%" x2="-131.060889%" y2="157.135781%" id="linearGradient-9">
            <stop stop-color="#4ABCAD" offset="0%"></stop>
            <stop stop-color="#D9FFFA" offset="100%"></stop>
        </linearGradient>
        <linearGradient x1="4.76036217%" y1="50%" x2="100%" y2="50%" id="linearGradient-10">
            <stop stop-color="#FF2B00" stop-opacity="0" offset="0%"></stop>
            <stop stop-color="#FA4A26" offset="100%"></stop>
        </linearGradient>
        <linearGradient x1="50%" y1="17.8897218%" x2="50%" y2="100%" id="linearGradient-11">
            <stop stop-color="#FFFFFF" stop-opacity="0" offset="0%"></stop>
            <stop stop-color="#FFFFFF" offset="100%"></stop>
        </linearGradient>
        <linearGradient x1="126.946305%" y1="0%" x2="0.499999523%" y2="101.499999%" id="linearGradient-12">
            <stop stop-color="#FF2B00" stop-opacity="0.374971694" offset="0%"></stop>
            <stop stop-color="#FA4A26" offset="100%"></stop>
        </linearGradient>
        <linearGradient x1="175.48429%" y1="0%" x2="0.499999523%" y2="101.499999%" id="linearGradient-13">
            <stop stop-color="#FF2B00" stop-opacity="0.374971694" offset="0%"></stop>
            <stop stop-color="#FA4A26" offset="100%"></stop>
        </linearGradient>
    </defs>
    <g id="Page-1" stroke="none" stroke-width="1" fill="none" fill-rule="evenodd">
        <g id="Desktop" transform="translate(-759.000000, -53.000000)">
            <g id="Hero-Section" transform="translate(0.000000, -2.000000)">
                <g id="Illustration" transform="translate(701.000000, 6.000000)">
                    <g id="Calendar" transform="translate(763.000000, 405.000000)">
                        <rect id="Rectangle" fill="#FFFFFF" x="0" y="0" width="396" height="285" rx="5"></rect>
                        <rect id="Rectangle" fill="#D8D8D8" x="21" y="30" width="148" height="14" rx="2"></rect>
                        <g id="Row-1" transform="translate(21.000000, 75.000000)">
                            <rect id="Rectangle" fill="#D8D8D8" x="0" y="0" width="36.8831169" height="37" rx="5"></rect>
                            <rect id="Rectangle-Copy-29" fill="#D8D8D8" x="53.4805195" y="0" width="36.8831169" height="37" rx="5"></rect>
                            <rect id="Rectangle-Copy-30" fill="#D8D8D8" x="106.038961" y="0" width="36.8831169" height="37" rx="5"></rect>
                            <rect id="Rectangle-Copy-31" fill="#D8D8D8" x="159.519481" y="0" width="36.8831169" height="37" rx="5"></rect>
                            <rect id="Rectangle-Copy-32" fill="#D8D8D8" x="212.077922" y="0" width="36.8831169" height="37" rx="5"></rect>
                            <rect id="Rectangle-Copy-33" fill="#DDDDDD" x="265.558442" y="0" width="36.8831169" height="37" rx="5"></rect>
                            <rect id="Rectangle-Copy-34" fill="url(#linearGradient-1)" x="318.116883" y="0" width="36.8831169" height="37" rx="5"></rect>
                        </g>
                        <g id="Row-2" transform="translate(21.000000, 121.000000)">
                            <rect id="Rectangle" fill="#D8D8D8" x="0" y="0" width="36.8831169" height="37" rx="5"></rect>
                            <rect id="Rectangle-Copy-29" fill="#D8D8D8" x="53.4805195" y="0" width="36.8831169" height="37" rx="5"></rect>
                            <rect id="Rectangle-Copy-30" fill="#D8D8D8" x="106.038961" y="0" width="36.8831169" height="37" rx="5"></rect>
                            <rect id="Rectangle-Copy-31" fill="#D8D8D8" x="159.519481" y="0" width="36.8831169" height="37" rx="5"></rect>
                            <rect id="Rectangle-Copy-32" fill="#D8D8D8" x="212.077922" y="0" width="36.8831169" height="37" rx="5"></rect>
                            <rect id="Rectangle-Copy-33" fill="#DDDDDD" x="265.558442" y="0" width="36.8831169" height="37" rx="5"></rect>
                            <rect id="Rectangle-Copy-34" fill="url(#linearGradient-2)" x="318.116883" y="0" width="36.8831169" height="37" rx="5"></rect>
                        </g>
                        <g id="Row-3" transform="translate(21.000000, 167.000000)">
                            <rect id="Rectangle" fill="#D8D8D8" x="0" y="0" width="36.8831169" height="37" rx="5"></rect>
                            <rect id="Rectangle-Copy-29" fill="#D8D8D8" x="53.4805195" y="0" width="36.8831169" height="37" rx="5"></rect>
                            <rect id="Rectangle-Copy-30" fill="#D8D8D8" x="106.038961" y="0" width="36.8831169" height="37" rx="5"></rect>
                            <rect id="Rectangle-Copy-31" fill="#D8D8D8" x="159.519481" y="0" width="36.8831169" height="37" rx="5"></rect>
                            <rect id="Rectangle-Copy-32" fill="#D8D8D8" x="212.077922" y="0" width="36.8831169" height="37" rx="5"></rect>
                            <rect id="Rectangle-Copy-33" fill="#DDDDDD" x="265.558442" y="0" width="36.8831169" height="37" rx="5"></rect>
                            <rect id="Rectangle-Copy-34" fill="url(#linearGradient-3)" x="318.116883" y="0" width="36.8831169" height="37" rx="5"></rect>
                        </g>
                        <g id="Row-4" transform="translate(21.000000, 214.000000)">
                            <rect id="Rectangle" fill="#D8D8D8" x="0" y="0" width="36.8831169" height="37" rx="5"></rect>
                            <rect id="Rectangle-Copy-29" fill="#D8D8D8" x="53.4805195" y="0" width="36.8831169" height="37" rx="5"></rect>
                            <rect id="Rectangle-Copy-30" fill="#D8D8D8" x="106.038961" y="0" width="36.8831169" height="37" rx="5"></rect>
                            <rect id="Rectangle-Copy-31" fill="#D8D8D8" x="159.519481" y="0" width="36.8831169" height="37" rx="5"></rect>
                            <rect id="Rectangle-Copy-32" fill="#D8D8D8" x="212.077922" y="0" width="36.8831169" height="37" rx="5"></rect>
                            <rect id="Rectangle-Copy-33" fill="#DDDDDD" x="265.558442" y="0" width="36.8831169" height="37" rx="5"></rect>
                            <rect id="Rectangle-Copy-34" fill="url(#linearGradient-4)" x="318.116883" y="0" width="36.8831169" height="37" rx="5"></rect>
                        </g>
                    </g>
                    <g id="Camera" transform="translate(188.000000, 969.000000)">
                        <rect id="Rectangle-Copy-36" fill="#D1D1D1" x="50" y="0" width="29" height="10" rx="5"></rect>
                        <rect id="Rectangle" fill="#D8D8D8" x="0" y="4" width="128" height="78" rx="5"></rect>
                        <rect id="Rectangle-Copy-37" fill="#D8D8D8" x="99" y="2" width="16" height="10" rx="5"></rect>
                        <ellipse id="Oval" fill="#838383" cx="64" cy="43.5" rx="25" ry="24.5"></ellipse>
                        <ellipse id="Oval-Copy-3" fill="#EDEDED" cx="64" cy="44" rx="22" ry="21"></ellipse>
                    </g>
                    <g id="Computer" transform="translate(363.000000, 578.000000)">
                        <g id="Monitor">
                            <polygon id="Monitor-Stand" fill="#D8D8D8" points="266.895028 396 400.104972 396 419 462 248 462"></polygon>
                            <polygon id="Monitor-Base" fill="#A8A8A8" points="189.391911 460 477.608089 460 480 473 187 473"></polygon>
                            <rect stroke="#838383" stroke-width="15" fill="#FFFEFE" x="0" y="0" width="665" height="396" rx="5"></rect>
                            <g id="Window-Left-Up" transform="translate(23.000000, 25.000000)">
                                <rect id="Rectangle" stroke="#EEEEEE" fill="#FFFFFF" x="0.5" y="0.5" width="294.901498" height="173.62761" rx="2"></rect>
                                <text id="&gt;_" font-family="Lato-Bold, Lato" font-size="10" font-weight="bold" fill="#878787">
                                    <tspan x="6.63881566" y="147.324914">&gt;</tspan>
                                    <tspan x="6.63881566" y="159.324914">_</tspan>
                                </text>
                                <rect id="Rectangle" fill="#D8D8D8" opacity="0.368629092" x="5.69041342" y="22.9019816" width="132.776313" height="4.77124618" rx="1"></rect>
                                <rect id="Rectangle-Copy-3" fill="#D8D8D8" opacity="0.368629092" x="5.69041342" y="29.5817263" width="47.4201119" height="4.77124618" rx="1"></rect>
                                <rect id="Rectangle-Copy-15" fill="#D8D8D8" opacity="0.129603795" x="257.965409" y="20.9934832" width="30.3488716" height="44.8497141" rx="1"></rect>
                                <rect id="Rectangle-Copy-16" fill="#D8D8D8" opacity="0.103724888" x="4.74201119" y="135.503391" width="283.572269" height="33.3987232" rx="1"></rect>
                                <rect id="Rectangle-Copy-4" fill="#D8D8D8" opacity="0.368629092" x="5.69041342" y="36.2614709" width="85.3562013" height="4.77124618" rx="1"></rect>
                                <rect id="Rectangle-Copy-10" fill="#D8D8D8" opacity="0.368629092" x="5.69041342" y="103.058917" width="9.48402237" height="4.77124618" rx="1"></rect>
                                <rect id="Rectangle-Copy-17" fill="#D8D8D8" opacity="0.368629092" x="14.2260336" y="116.418407" width="66.3881566" height="4.77124618" rx="1"></rect>
                                <rect id="Rectangle-Copy-19" fill="#D8D8D8" opacity="0.368629092" x="14.2260336" y="123.098151" width="9.48402237" height="4.77124618" rx="1"></rect>
                                <rect id="Rectangle-Copy-18" fill="#D8D8D8" opacity="0.368629092" x="14.2260336" y="109.738662" width="132.776313" height="4.77124618" rx="1"></rect>
                                <rect id="Rectangle-Copy-5" fill="#D8D8D8" opacity="0.368629092" x="15.1744358" y="42.9412156" width="85.3562013" height="4.77124618" rx="1"></rect>
                                <rect id="Rectangle-Copy-6" fill="#D8D8D8" opacity="0.368629092" x="24.6584582" y="49.6209602" width="85.3562013" height="4.77124618" rx="1"></rect>
                                <rect id="Rectangle-Copy-7" fill="#D8D8D8" opacity="0.368629092" x="24.6584582" y="56.3007049" width="85.3562013" height="4.77124618" rx="1"></rect>
                                <rect id="Rectangle-Copy-8" fill="#D8D8D8" opacity="0.368629092" x="24.6584582" y="62.9804495" width="85.3562013" height="4.77124618" rx="1"></rect>
                                <rect id="Rectangle-Copy-9" fill="#D8D8D8" opacity="0.368629092" x="15.1744358" y="69.6601942" width="9.48402237" height="4.77124618" rx="1"></rect>
                                <rect id="Rectangle-Copy-14" fill="#D8D8D8" opacity="0.368629092" x="15.1744358" y="96.3791728" width="9.48402237" height="4.77124618" rx="1"></rect>
                                <rect id="Rectangle-Copy-11" fill="#D8D8D8" opacity="0.368629092" x="24.6584582" y="76.3399388" width="37.9360895" height="4.77124618" rx="1"></rect>
                                <rect id="Rectangle-Copy-12" fill="#D8D8D8" opacity="0.368629092" x="24.6584582" y="83.0196835" width="37.9360895" height="4.77124618" rx="1"></rect>
                                <rect id="Rectangle-Copy-13" fill="#D8D8D8" opacity="0.368629092" x="24.6584582" y="89.6994281" width="37.9360895" height="4.77124618" rx="1"></rect>
                                <g id="Dots" transform="translate(5.690413, 4.771246)">
                                    <ellipse id="Oval" fill="#FC615C" cx="2.37100559" cy="2.38562309" rx="2.37100559" ry="2.38562309"></ellipse>
                                    <ellipse id="Oval-Copy" fill="#FDBC40" cx="9.48402237" cy="2.38562309" rx="2.37100559" ry="2.38562309"></ellipse>
                                    <ellipse id="Oval-Copy-2" fill="#33C748" cx="16.5970392" cy="2.38562309" rx="2.37100559" ry="2.38562309"></ellipse>
                                </g>
                            </g>
                            <g id="Window-Right-Up" transform="translate(332.000000, 25.000000)">
                                <rect id="Rectangle" stroke="#EEEEEE" fill="#FFFFFF" x="0.5" y="0.5" width="308.17745" height="173.62761" rx="2"></rect>
                                <g id="Dots" transform="translate(5.690383, 4.771246)">
                                    <ellipse id="Oval" fill="#FC615C" cx="2.48954235" cy="2.38562309" rx="2.48954235" ry="2.38562309"></ellipse>
                                    <ellipse id="Oval-Copy" fill="#FDBC40" cx="9.95816941" cy="2.38562309" rx="2.48954235" ry="2.38562309"></ellipse>
                                    <ellipse id="Oval-Copy-2" fill="#33C748" cx="17.4267965" cy="2.38562309" rx="2.48954235" ry="2.38562309"></ellipse>
                                </g>
                                <polygon id="Triangle" fill="#D8D8D8" opacity="0.8" transform="translate(154.588725, 87.313805) rotate(90.000000) translate(-154.588725, -87.313805) " points="154.588725 73.0878487 171.288087 101.539761 137.889364 101.539761"></polygon>
                            </g>
                            <g id="Window-Lower" transform="translate(25.000000, 211.000000)">
                                <rect id="Rectangle" stroke="#EEEEEE" fill="#FFFFFF" x="0.5" y="0.5" width="616.790989" height="156.23301" rx="2"></rect>
                                <g id="Dots" transform="translate(5.693926, 4.764637)">
                                    <ellipse id="Oval" fill="#FC615C" cx="2.4910927" cy="2.38231833" rx="2.4910927" ry="2.38231833"></ellipse>
                                    <ellipse id="Oval-Copy" fill="#FDBC40" cx="9.96437079" cy="2.38231833" rx="2.4910927" ry="2.38231833"></ellipse>
                                    <ellipse id="Oval-Copy-2" fill="#33C748" cx="17.4376489" cy="2.38231833" rx="2.4910927" ry="2.38231833"></ellipse>
                                </g>
                                <rect id="Rectangle" fill="#D8D8D8" opacity="0.155831473" x="6.64291386" y="19.0585466" width="605.454149" height="131.503972" rx="2"></rect>
                                <g id="Timeline" transform="translate(16.132791, 28.587820)" fill="#E6E6E6">
                                    <rect id="Rectangle" x="0" y="0" width="588.372371" height="19.0585466"></rect>
                                    <rect id="Rectangle-Copy-20" x="0" y="23.8231833" width="94.8987694" height="19.0585466"></rect>
                                    <rect id="Rectangle-Copy-21" x="189.797539" y="23.8231833" width="47.4493847" height="19.0585466"></rect>
                                    <rect id="Rectangle-Copy-22" x="246.736801" y="23.8231833" width="107.235609" height="19.0585466"></rect>
                                    <rect id="Rectangle-Copy-23" x="94.8987694" y="47.6463666" width="94.8987694" height="19.0585466"></rect>
                                    <rect id="Rectangle-Copy-24" x="353.97241" y="47.6463666" width="234.399961" height="19.0585466"></rect>
                                    <rect id="Rectangle-Copy-25" x="0" y="71.4695499" width="189.797539" height="19.0585466"></rect>
                                    <rect id="Rectangle-Copy-27" x="218.26717" y="71.4695499" width="107.235609" height="19.0585466"></rect>
                                    <rect id="Rectangle-Copy-28" x="353.97241" y="71.4695499" width="234.399961" height="19.0585466"></rect>
                                    <rect id="Rectangle-Copy-26" x="0" y="95.2927332" width="588.372371" height="19.0585466"></rect>
                                </g>
                                <path d="M72.1230648,28.5878199 L72.1230648,142.9391" id="Line" stroke="#979797" opacity="0.358630952" stroke-linecap="square"></path>
                                <path d="M68.9032819,22.4173286 L69.710003,28.0878199 L74.5361265,28.0878199 L75.3428477,22.4173286 L68.9032819,22.4173286 Z" id="Rectangle" stroke="#979797" fill="#D8D8D8" opacity="0.358630952"></path>
                            </g>
                        </g>
                        <path d="M608,473 C608,455.879173 622.10303,442 639.5,442 C656.89697,442 671,455.879173 671,473 L608,473 Z" id="Mouse" fill="url(#linearGradient-5)"></path>
                    </g>
                    <g id="Coffee" transform="translate(286.000000, 923.000000)">
                        <path d="M0,27 L60,27 L53.9958057,127.059898 C53.9641182,127.58797 53.5266229,128 52.9976012,128 L7.0023988,128 C6.47337715,128 6.03588179,127.58797 6.00419431,127.059898 L0,27 Z" id="Rectangle" fill="url(#linearGradient-6)"></path>
                        <path d="M6.65137807,8 L53.3486219,8 C53.7130481,8 54.048621,8.19824708 54.224481,8.51743302 L60,19 L0,19 L5.775519,8.51743302 C5.95137902,8.19824708 6.28695193,8 6.65137807,8 Z" id="Rectangle" fill="url(#linearGradient-7)"></path>
                        <path d="M14.1222635,4.03225094 L45.6678373,0.0366680841 C46.0658039,-0.0137386215 46.455376,0.178547501 46.6574086,0.525103512 L49.5555149,5.49636164 C49.8336666,5.97348849 49.6723655,6.5857628 49.1952386,6.86391458 C49.0423575,6.95304008 48.8685635,7 48.6916003,7 L12.2885581,7 C11.8415035,7 11.4790942,6.63759067 11.4790942,6.19053611 C11.4790942,5.92920248 11.6052625,5.68394536 11.817874,5.53198603 L13.6664438,4.21076146 C13.801248,4.11441315 13.9578809,4.05307176 14.1222635,4.03225094 Z" id="Rectangle-Copy-35" fill="url(#linearGradient-8)"></path>
                        <rect id="Rectangle" fill="url(#linearGradient-9)" x="0" y="20" width="60" height="6"></rect>
                    </g>
                    <path d="M13,1051 L1219,1051 L1219,1077 L13,1077 C5.82029825,1077 8.79259876e-16,1071.1797 0,1064 L0,1064 C-8.79259876e-16,1056.8203 5.82029825,1051 13,1051 Z" id="Table" fill="url(#linearGradient-10)" opacity="0.754464286"></path>
                    <g id="Bulb" opacity="0.950753348" transform="translate(694.000000, 0.000000)">
                        <path d="M78.5299532,0.5 L78.5299532,272.5" id="Line-2" stroke="url(#linearGradient-11)" stroke-width="8" stroke-linecap="square"></path>
                        <path d="M0,312 C0,268.92179 35.1456471,234 78.5,234 C121.854353,234 157,268.92179 157,312 L2.84217094e-14,312 Z" id="Lamp" fill="#F9F9F9"></path>
                        <path d="M61,330 C61,320.058875 69.0588745,312 79,312 C88.9411255,312 97,320.058875 97,330 L61,330 Z" fill="url(#linearGradient-12)" transform="translate(79.000000, 321.000000) rotate(180.000000) translate(-79.000000, -321.000000) "></path>
                    </g>
                    <g id="Bulb-" opacity="0.950753348" transform="translate(521.000000, 82.000000)">
                        <path d="M78.5299532,0 L78.5299532,342.5" id="Line-2" stroke="url(#linearGradient-11)" stroke-width="8" stroke-linecap="square"></path>
                        <path d="M0,382 C0,338.92179 35.1456471,304 78.5,304 C121.854353,304 157,338.92179 157,382 L2.84217094e-14,382 Z" id="Lamp" fill="#F5F5F5"></path>
                        <path d="M61,400 C61,390.058875 69.0588745,382 79,382 C88.9411255,382 97,390.058875 97,400 L61,400 Z" id="Bulb" fill="url(#linearGradient-13)" transform="translate(79.000000, 391.000000) rotate(180.000000) translate(-79.000000, -391.000000) "></path>
                    </g>
                </g>
            </g>
        </g>
    </g>
</svg>